<svg width="24" height="24" fill="none" aria-hidden="true" viewBox="0 0 24 24"><path fill="#000" d="M9.5 15a.5.5 0 0 0 0 1h2a.5.5 0 0 0 0-1zm4.5-1.5a.5.5 0 0 1 .5-.5h2a.5.5 0 0 1 0 1h-2a.5.5 0 0 1-.5-.5m-3.5-.5a.5.5 0 0 0 0 1h2a.5.5 0 0 0 0-1zm2.5 2.5a.5.5 0 0 1 .5-.5h1a.5.5 0 0 1 0 1h-1a.5.5 0 0 1-.5-.5M7.5 13a.5.5 0 0 0 0 1h1a.5.5 0 0 0 0-1z"/><path fill="#000" fill-rule="evenodd" d="M5 8a2 2 0 0 1 2-2h10a2 2 0 0 1 2 2v8a2 2 0 0 1-2 2H7a2 2 0 0 1-2-2zm2-1h10a1 1 0 0 1 1 1v8a1 1 0 0 1-1 1H7a1 1 0 0 1-1-1V8a1 1 0 0 1 1-1" clip-rule="evenodd"/></svg>