<svg width="24" height="24" fill="none" aria-hidden="true" viewBox="0 0 24 24"><path fill="#000" d="M11.25 7.5a.75.75 0 1 1-1.5 0 .75.75 0 0 1 1.5 0M7.5 8a.5.5 0 1 0 0-1 .5.5 0 0 0 0 1m0 3.25a.75.75 0 1 0 0-1.5.75.75 0 0 0 0 1.5m.75 2.25a.75.75 0 1 1-1.5 0 .75.75 0 0 1 1.5 0M7.5 17a.5.5 0 1 0 0-1 .5.5 0 0 0 0 1m3-5.5a1 1 0 1 0 0-2 1 1 0 0 0 0 2m1 2a1 1 0 1 1-2 0 1 1 0 0 1 2 0m-1 3.75a.75.75 0 1 0 0-1.5.75.75 0 0 0 0 1.5m3.75-9.75a.75.75 0 1 1-1.5 0 .75.75 0 0 1 1.5 0m-.75 4a1 1 0 1 0 0-2 1 1 0 0 0 0 2m1 2a1 1 0 1 1-2 0 1 1 0 0 1 2 0m-1 3.75a.75.75 0 1 0 0-1.5.75.75 0 0 0 0 1.5m3.75-6.75a.75.75 0 1 1-1.5 0 .75.75 0 0 1 1.5 0M16.5 8a.5.5 0 1 0 0-1 .5.5 0 0 0 0 1m.75 5.5a.75.75 0 1 1-1.5 0 .75.75 0 0 1 1.5 0M16.5 17a.5.5 0 1 0 0-1 .5.5 0 0 0 0 1"/></svg>