<svg width="24" height="24" fill="none" aria-hidden="true" viewBox="0 0 24 24"><path fill="#000" d="M9 13a1 1 0 1 1-2 0 1 1 0 0 1 2 0m3 0a1 1 0 1 1-2 0 1 1 0 0 1 2 0m3 0a1 1 0 1 1-2 0 1 1 0 0 1 2 0"/><path fill="#000" fill-rule="evenodd" d="M18 18a2 2 0 0 0 2-2V6a2 2 0 0 0-2-2H8a2 2 0 0 0-2 2h1a1 1 0 0 1 1-1h10a1 1 0 0 1 1 1v10a1 1 0 0 1-1 1V8a2 2 0 0 0-2-2H6a2 2 0 0 0-2 2v10a2 2 0 0 0 2 2h10a2 2 0 0 0 2-2M6 19h10a1 1 0 0 0 1-1V8a1 1 0 0 0-1-1H6a1 1 0 0 0-1 1v10a1 1 0 0 0 1 1" clip-rule="evenodd"/></svg>