<svg width="24" height="24" fill="none" aria-hidden="true" viewBox="0 0 24 24"><path fill="#000" d="M10.233 6.475a2.5 2.5 0 0 1 3.535 0L15.293 8H14a.5.5 0 0 0 0 1h2.5a.5.5 0 0 0 .5-.5V6a.5.5 0 1 0-1 0v1.293l-1.525-1.525a3.5 3.5 0 0 0-4.95 0L7.147 8.146a.5.5 0 0 0 .707.708z"/><path fill="#000" fill-rule="evenodd" d="M13.06 9.646a1.5 1.5 0 0 0-2.12 0L7.647 12.94a1.5 1.5 0 0 0 0 2.122l3.293 3.293a1.5 1.5 0 0 0 2.12 0l3.294-3.293a1.5 1.5 0 0 0 0-2.122zm-1.413.708a.5.5 0 0 1 .707 0l3.293 3.293a.5.5 0 0 1 0 .707l-3.293 3.293a.5.5 0 0 1-.707 0l-3.293-3.293a.5.5 0 0 1 0-.707z" clip-rule="evenodd"/></svg>