<svg width="24" height="24" fill="none" aria-hidden="true" viewBox="0 0 24 24"><path fill="#000" fill-rule="evenodd" d="M6 14a1 1 0 0 1 .486-.858L8.389 12l-1.903-1.142a1 1 0 0 1 0-1.715L10.97 6.45a2 2 0 0 1 2.058 0l4.486 2.692a1 1 0 0 1 0 1.714L15.61 12l1.904 1.142a1 1 0 0 1 0 1.715l-4.486 2.692a2 2 0 0 1-2.058 0l-4.485-2.692A1 1 0 0 1 6 14m11-4-4.485-2.691a1 1 0 0 0-1.03 0L7 10l4.486 2.691a1 1 0 0 0 1.028 0zm-2.361 2.583L17 14l-4.485 2.691a1 1 0 0 1-1.03 0L7 14l2.361-1.417 1.61.966a2 2 0 0 0 2.058 0z" clip-rule="evenodd"/></svg>