<svg width="24" height="24" fill="none" aria-hidden="true" viewBox="0 0 24 24"><path fill="#000" d="M5.5 18a.5.5 0 0 0 .5-.5v-12a.5.5 0 0 0-1 0v12a.5.5 0 0 0 .5.5M18 9.25a.75.75 0 0 1-.75.75h-8.5A.75.75 0 0 1 8 9.25v-.5A.75.75 0 0 1 8.75 8h8.5a.75.75 0 0 1 .75.75zm-4 5a.75.75 0 0 1-.75.75h-4.5a.75.75 0 0 1-.75-.75v-.5a.75.75 0 0 1 .75-.75h4.5a.75.75 0 0 1 .75.75z"/><path fill="#000" fill-opacity=".3" fill-rule="evenodd" d="M8 5.5a.5.5 0 0 1 .5-.5h10.25c.69 0 1.25.56 1.25 1.25v10.5c0 .69-.56 1.25-1.25 1.25H8.5a.5.5 0 0 1 0-1h10.25a.25.25 0 0 0 .25-.25V6.25a.25.25 0 0 0-.25-.25H8.5a.5.5 0 0 1-.5-.5" clip-rule="evenodd"/></svg>