<svg width="24" height="24" fill="none" aria-hidden="true" viewBox="0 0 24 24"><path fill="#000" d="M9.354 10.854a.5.5 0 0 0-.708-.708l-1.5 1.5a.5.5 0 0 0 0 .708l1.5 1.5a.5.5 0 0 0 .708-.708l-.647-.646h6.586l-.647.646a.5.5 0 0 0 .708.708l1.5-1.5a.5.5 0 0 0 0-.708l-1.5-1.5a.5.5 0 0 0-.708.708l.647.646H8.707z"/><path fill="#000" fill-rule="evenodd" d="M5 7.5A1.5 1.5 0 0 1 6.5 6h11A1.5 1.5 0 0 1 19 7.5v9a1.5 1.5 0 0 1-1.5 1.5h-11A1.5 1.5 0 0 1 5 16.5zM6.5 7h11a.5.5 0 0 1 .5.5v9a.5.5 0 0 1-.5.5h-11a.5.5 0 0 1-.5-.5v-9a.5.5 0 0 1 .5-.5" clip-rule="evenodd"/></svg>