<svg width="24" height="24" fill="none" aria-hidden="true" viewBox="0 0 24 24"><path fill="#000" fill-rule="evenodd" d="M11.146 6.146a.5.5 0 0 1 .708 0l2 2a.5.5 0 0 1-.708.708L12 7.707V15h3.5a1.5 1.5 0 0 1 0 3h-8a1.5 1.5 0 0 1 0-3H11V7.707L9.854 8.854a.5.5 0 1 1-.708-.708zM7.5 16a.5.5 0 0 0 0 1h8a.5.5 0 0 0 0-1z" clip-rule="evenodd"/><path fill="#000" d="M7 12.5a.5.5 0 0 1 .5-.5h2a.5.5 0 0 0 0-1h-2a1.5 1.5 0 0 0 0 3h2a.5.5 0 0 0 0-1h-2a.5.5 0 0 1-.5-.5m8.5-1.5h-2a.5.5 0 0 0 0 1h2a.5.5 0 0 1 0 1h-2a.5.5 0 0 0 0 1h2a1.5 1.5 0 0 0 0-3"/></svg>