<svg width="24" height="24" fill="none" aria-hidden="true" viewBox="0 0 24 24"><path fill="#000" fill-rule="evenodd" d="M6 7.5A1.5 1.5 0 0 1 7.5 6h2A1.5 1.5 0 0 1 11 7.5v2A1.5 1.5 0 0 1 9.5 11h-2A1.5 1.5 0 0 1 6 9.5zM7.5 7h2a.5.5 0 0 1 .5.5v2a.5.5 0 0 1-.5.5h-2a.5.5 0 0 1-.5-.5v-2a.5.5 0 0 1 .5-.5m5.5.5A1.5 1.5 0 0 1 14.5 6h2A1.5 1.5 0 0 1 18 7.5v2a1.5 1.5 0 0 1-1.5 1.5h-2A1.5 1.5 0 0 1 13 9.5zm1.5-.5h2a.5.5 0 0 1 .5.5v2a.5.5 0 0 1-.5.5h-2a.5.5 0 0 1-.5-.5v-2a.5.5 0 0 1 .5-.5m-7 6A1.5 1.5 0 0 0 6 14.5v2A1.5 1.5 0 0 0 7.5 18h2a1.5 1.5 0 0 0 1.5-1.5v-2A1.5 1.5 0 0 0 9.5 13zm2 1h-2a.5.5 0 0 0-.5.5v2a.5.5 0 0 0 .5.5h2a.5.5 0 0 0 .5-.5v-2a.5.5 0 0 0-.5-.5" clip-rule="evenodd"/><path fill="#000" d="M16 13.5a.5.5 0 0 0-1 0V15h-1.5a.5.5 0 0 0 0 1H15v1.5a.5.5 0 0 0 1 0V16h1.5a.5.5 0 0 0 0-1H16z"/></svg>