<svg width="24" height="24" fill="none" aria-hidden="true" viewBox="0 0 24 24"><path fill="#000" d="M6.5 6a.5.5 0 0 0-.5.5v3a.5.5 0 0 0 1 0V7h2.5a.5.5 0 0 0 0-1zm8 0a.5.5 0 0 0 0 1H17v2.5a.5.5 0 0 0 1 0v-3a.5.5 0 0 0-.5-.5zM7 14.5a.5.5 0 0 0-1 0v3a.5.5 0 0 0 .5.5h3a.5.5 0 0 0 0-1H7zm11 0a.5.5 0 0 0-1 0V17h-2.5a.5.5 0 0 0 0 1h3a.5.5 0 0 0 .5-.5z"/><path fill="#000" fill-rule="evenodd" d="M12.354 8.646a.5.5 0 0 0-.708 0l-3 3a.5.5 0 0 0 0 .708l3 3a.5.5 0 0 0 .708 0l3-3a.5.5 0 0 0 0-.708zM12 14.293 9.707 12 12 9.707 14.293 12z" clip-rule="evenodd"/></svg>